<svg xmlns="http://www.w3.org/2000/svg" width="1200" height="280" viewBox="0 0 1200 280"
     role="img" aria-labelledby="title desc" font-family="'Segoe UI', -apple-system, BlinkMacSystemFont, 'Helvetica Neue', Arial, sans-serif">
  <title id="title">Zettle</title>
  <desc id="desc">The Zettle logo — fixed-fee conveyancing for Australian property, across QLD, NSW and VIC.</desc>

  <rect width="1200" height="280" rx="28" fill="#4609B3"/>

  <!-- soft motif: rounded 'path' pills receding into the field -->
  <g fill="none" stroke="#FFFFFF" stroke-opacity="0.07" stroke-width="2">
    <rect x="120" y="-90" width="640" height="180" rx="90"/>
    <rect x="480" y="200" width="720" height="220" rx="110"/>
  </g>

  <!-- OFFICIAL zettle logo (reversed): orange converge-mark + white wordmark, centred -->
  <g transform="translate(379 84) scale(2.4)">
    <path d="M67.8792 30.3097C67.7847 30.3893 67.7171 30.4958 67.6854 30.6146C67.6538 30.7335 67.6596 30.8591 67.7021 30.9746C67.7446 31.0902 67.8217 31.19 67.9231 31.2608C68.0246 31.3316 68.1455 31.3699 68.2695 31.3707L78.1729 31.3707C78.2557 31.3694 78.3378 31.3856 78.4138 31.4182C78.4899 31.4507 78.5581 31.4989 78.6139 31.5594C78.6698 31.62 78.712 31.6916 78.7379 31.7696C78.7638 31.8476 78.7727 31.9301 78.764 32.0117L78.2956 37.3167C78.2779 37.4888 78.1972 37.6485 78.0687 37.7656C77.9403 37.8827 77.773 37.9491 77.5985 37.9522H58.2211C58.1376 37.9582 58.0537 37.9454 57.9758 37.9148C57.8979 37.8842 57.8279 37.8366 57.7711 37.7756C57.7143 37.7145 57.6722 37.6416 57.6478 37.5621C57.6233 37.4827 57.6173 37.3988 57.6301 37.3167L58.0985 31.9785C58.1131 31.8232 58.1798 31.6773 58.2881 31.5641L69.3736 19.8488C69.4663 19.7683 69.5322 19.6618 69.5624 19.5434C69.5927 19.425 69.5858 19.3002 69.5429 19.1857C69.4999 19.0712 69.4229 18.9724 69.3219 18.9023C69.221 18.8322 69.1009 18.7942 68.9777 18.7933H60.0557C59.9729 18.7945 59.8908 18.7783 59.8148 18.7458C59.7388 18.7133 59.6705 18.6651 59.6147 18.6045C59.5588 18.544 59.5166 18.4723 59.4907 18.3944C59.4648 18.3164 59.4559 18.2339 59.4646 18.1523L59.9275 12.897C59.9452 12.7234 60.0265 12.5624 60.1559 12.4442C60.2854 12.3261 60.4541 12.2591 60.6301 12.2559L79.4108 12.2559C79.4936 12.2547 79.5758 12.2709 79.6518 12.3034C79.7278 12.336 79.796 12.3841 79.8518 12.4447C79.9077 12.5053 79.95 12.5769 79.9758 12.6549C80.0017 12.7328 80.0106 12.8153 80.0019 12.897L79.5335 18.2296C79.5171 18.3883 79.4462 18.5365 79.3327 18.6496L67.8792 30.3097Z" fill="#FFFFFF"/>
    <path d="M106.35 24.407C106.3 24.9476 106.206 25.4834 106.071 26.0096C106.033 26.1566 105.947 26.2869 105.825 26.3799C105.704 26.4729 105.555 26.5234 105.402 26.5235L88.6345 26.5235C88.4545 26.5235 88.2817 26.5936 88.1534 26.7187C88.0251 26.8438 87.9516 27.0138 87.9486 27.1922C87.9784 28.7837 88.3501 29.9571 89.0639 30.7123C89.505 31.1369 90.0299 31.4665 90.6057 31.6804C91.1814 31.8944 91.7956 31.9881 92.4096 31.9557C93.4804 31.9882 94.5337 31.6803 95.4152 31.077C96.0741 30.6241 96.6026 30.0089 96.9487 29.2921C97.0091 29.1583 97.1056 29.0436 97.2276 28.9607C97.3496 28.8778 97.4924 28.8299 97.6401 28.8224H104.772C104.866 28.816 104.96 28.8333 105.045 28.8724C105.13 28.9116 105.204 28.9714 105.259 29.0463C105.315 29.1213 105.351 29.2089 105.363 29.3012C105.375 29.3934 105.364 29.4872 105.33 29.5739C104.802 31.0942 103.978 32.4968 102.904 33.7019C101.608 35.1363 100.019 36.2815 98.2424 37.0618C96.3494 37.8743 94.3051 38.2829 92.2423 38.2609C89.9298 38.3138 87.6424 37.7752 85.601 36.697C83.7535 35.6314 82.2861 34.0227 81.4022 32.0938C80.433 29.8951 80.0694 27.4811 80.3482 25.0978C80.5087 22.6211 81.2741 20.2202 82.5787 18.1018C83.8125 16.1566 85.5569 14.5807 87.6252 13.5427C89.7651 12.4555 92.1408 11.9034 94.5453 11.9346C96.859 11.8716 99.1489 12.4108 101.187 13.4985C103.004 14.495 104.449 16.0452 105.307 17.9194C106.249 19.9461 106.61 22.1906 106.35 24.407ZM97.813 23.2079C97.9854 23.2096 98.152 23.1459 98.2786 23.0298C98.4051 22.9137 98.4819 22.7539 98.4933 22.5834C98.5476 22.0097 98.476 21.4312 98.2835 20.8875C98.091 20.3438 97.7821 19.8478 97.378 19.4335C96.9345 19.0016 96.4063 18.6645 95.826 18.443C95.2457 18.2215 94.6257 18.1204 94.0044 18.146C92.7003 18.0935 91.4204 18.5062 90.3972 19.3093C89.374 20.1124 88.6754 21.2525 88.4282 22.5226C88.4075 22.6054 88.4064 22.6917 88.425 22.775C88.4436 22.8582 88.4814 22.936 88.5354 23.0024C88.5894 23.0687 88.6582 23.1218 88.7363 23.1575C88.8144 23.1931 88.8998 23.2104 88.9858 23.2079L97.813 23.2079Z" fill="#FFFFFF"/>
    <path d="M122.036 27.335C122.117 27.334 122.198 27.3506 122.272 27.3838C122.346 27.4169 122.412 27.4657 122.465 27.5268C122.518 27.5879 122.557 27.6598 122.579 27.7374C122.602 27.815 122.606 27.8965 122.593 27.9761L122.114 33.4635C122.095 33.636 122.013 33.7958 121.884 33.9128C121.754 34.0298 121.586 34.096 121.411 34.099H118.484C115.45 34.099 113.145 33.3622 111.569 31.8885C109.993 30.4149 109.374 27.9448 109.712 24.4781L110.482 15.6805C110.495 15.6009 110.49 15.5194 110.468 15.4418C110.446 15.3642 110.407 15.2923 110.354 15.2312C110.3 15.1702 110.234 15.1213 110.16 15.0882C110.086 15.0551 110.005 15.0385 109.924 15.0395H107.727C107.646 15.0404 107.566 15.0239 107.492 14.9911C107.419 14.9583 107.353 14.91 107.3 14.8495C107.247 14.7891 107.208 14.7179 107.185 14.641C107.163 14.5641 107.157 14.4832 107.169 14.404L107.638 9.05476C107.654 8.8817 107.734 8.72069 107.863 8.60246C107.991 8.48422 108.159 8.41704 108.335 8.41373H110.532C110.707 8.41042 110.875 8.34324 111.004 8.225C111.132 8.10677 111.213 7.94576 111.229 7.7727L111.669 2.74949C111.687 2.57596 111.768 2.41488 111.898 2.29675C112.027 2.17862 112.196 2.11164 112.372 2.10846L119.002 2.10846C119.085 2.10723 119.167 2.12342 119.243 2.15595C119.319 2.18849 119.387 2.23664 119.443 2.29723C119.499 2.35781 119.541 2.42944 119.567 2.50741C119.593 2.58537 119.602 2.66788 119.593 2.74949L119.153 7.7727C119.14 7.85232 119.144 7.93378 119.167 8.0114C119.189 8.08902 119.228 8.1609 119.281 8.22198C119.334 8.28307 119.4 8.33189 119.474 8.36501C119.548 8.39813 119.629 8.41477 119.71 8.41373L123.614 8.41373C123.697 8.40848 123.781 8.422 123.859 8.45328C123.936 8.48456 124.006 8.53278 124.062 8.59438C124.119 8.65598 124.16 8.72937 124.184 8.80908C124.208 8.88879 124.213 8.97276 124.199 9.05476L123.731 14.404C123.713 14.5761 123.632 14.7357 123.504 14.8528C123.376 14.9699 123.208 15.0363 123.034 15.0395H119.13C118.954 15.0427 118.786 15.1097 118.656 15.2278C118.527 15.3459 118.445 15.507 118.428 15.6805L117.647 24.6162C117.558 25.6275 117.697 26.3348 118.065 26.7327C118.433 27.1306 119.181 27.3295 120.151 27.3295L122.036 27.335Z" fill="#FFFFFF"/>
    <path d="M140.03 35.0062C140.113 35.005 140.195 35.0212 140.271 35.0537C140.347 35.0863 140.415 35.1344 140.471 35.195C140.527 35.2556 140.569 35.3272 140.595 35.4052C140.621 35.4831 140.63 35.5657 140.621 35.6473L140.136 41.1347C140.12 41.3077 140.039 41.4687 139.911 41.587C139.782 41.7052 139.614 41.7724 139.439 41.7757H136.506C133.472 41.7757 131.169 41.0389 129.597 39.5653C128.024 38.0916 127.404 35.6215 127.734 32.1548L128.51 23.3573C128.518 23.2756 128.509 23.1931 128.483 23.1152C128.458 23.0372 128.415 22.9656 128.359 22.905C128.304 22.8444 128.235 22.7963 128.159 22.7637C128.083 22.7312 128.001 22.715 127.918 22.7162H125.727C125.643 22.7222 125.56 22.7094 125.482 22.6788C125.404 22.6482 125.334 22.6006 125.277 22.5396C125.22 22.4785 125.178 22.4055 125.154 22.3261C125.129 22.2467 125.123 22.1628 125.136 22.0807L125.604 16.7315C125.622 16.5579 125.703 16.3969 125.833 16.2788C125.962 16.1606 126.131 16.0936 126.307 16.0904H128.482C128.658 16.0873 128.826 16.0203 128.956 15.9022C129.085 15.784 129.167 15.6229 129.184 15.4494L129.625 10.4262C129.643 10.2527 129.724 10.0916 129.853 9.97348C129.983 9.85535 130.151 9.78835 130.327 9.78518L136.974 9.78518C137.058 9.77905 137.143 9.79193 137.221 9.82282C137.3 9.85371 137.37 9.90182 137.427 9.96353C137.484 10.0252 137.526 10.099 137.55 10.1791C137.574 10.2592 137.579 10.3437 137.565 10.4262L137.125 15.4494C137.116 15.531 137.125 15.6135 137.151 15.6915C137.177 15.7695 137.219 15.8411 137.275 15.9017C137.331 15.9623 137.399 16.0104 137.475 16.043C137.551 16.0755 137.633 16.0917 137.716 16.0904L141.619 16.0904C141.702 16.0892 141.784 16.1054 141.86 16.1379C141.936 16.1705 142.004 16.2186 142.06 16.2792C142.116 16.3398 142.158 16.4114 142.184 16.4894C142.21 16.5673 142.219 16.6499 142.21 16.7315L141.742 22.0807C141.723 22.2533 141.641 22.413 141.512 22.53C141.382 22.647 141.214 22.7132 141.039 22.7162H137.136C136.961 22.7195 136.793 22.7867 136.664 22.905C136.535 23.0232 136.455 23.1842 136.439 23.3573L135.653 32.2929C135.563 33.3042 135.703 34.0116 136.071 34.4094C136.662 34.869 137.409 35.083 138.156 35.0062H140.03Z" fill="#FFFFFF"/>
    <path d="M154.606 3.87726C154.689 3.87603 154.771 3.89221 154.847 3.92475C154.923 3.95729 154.992 4.00544 155.047 4.06602C155.103 4.12661 155.146 4.19823 155.171 4.27619C155.197 4.35415 155.206 4.43666 155.197 4.51827L152.32 37.299C152.304 37.4715 152.223 37.6319 152.095 37.7492C151.966 37.8666 151.798 37.9326 151.623 37.9345H144.971C144.887 37.9405 144.803 37.9277 144.725 37.8971C144.647 37.8665 144.577 37.8189 144.521 37.7579C144.464 37.6968 144.422 37.6239 144.397 37.5444C144.373 37.465 144.367 37.3811 144.38 37.299L147.257 4.51827C147.273 4.34522 147.353 4.18423 147.482 4.06599C147.611 3.94776 147.779 3.88057 147.954 3.87726L154.606 3.87726Z" fill="#FFFFFF"/>
    <path d="M182.996 24.4069C182.942 24.9471 182.849 25.4828 182.717 26.0095C182.677 26.1556 182.59 26.2848 182.469 26.3775C182.348 26.4702 182.2 26.5215 182.048 26.5234L165.285 26.5234C165.105 26.5234 164.933 26.5935 164.804 26.7186C164.676 26.8436 164.603 27.0137 164.6 27.192C164.629 28.7835 165.001 29.9569 165.715 30.7122C166.156 31.1367 166.681 31.4664 167.257 31.6803C167.832 31.8943 168.447 31.988 169.061 31.9555C170.13 31.9869 171.181 31.679 172.061 31.0769C172.721 30.6241 173.251 30.009 173.6 29.292C173.659 29.1574 173.755 29.042 173.878 28.959C174 28.8759 174.143 28.8286 174.291 28.8222H181.423C181.517 28.8159 181.611 28.8331 181.696 28.8723C181.781 28.9114 181.855 28.9713 181.91 29.0462C181.966 29.1212 182.001 29.2088 182.014 29.301C182.026 29.3933 182.015 29.4871 181.981 29.5738C181.457 31.0948 180.635 32.4978 179.561 33.7018C178.262 35.1337 176.674 36.2785 174.899 37.0616C173.004 37.8743 170.958 38.2829 168.893 38.2608C166.581 38.3129 164.294 37.7743 162.252 36.6969C160.405 35.6327 158.939 34.0234 158.059 32.0937C157.085 29.8963 156.719 27.4815 156.999 25.0977C157.16 22.621 157.925 20.2201 159.23 18.1016C160.465 16.1579 162.209 14.5824 164.276 13.5426C166.416 12.4553 168.792 11.9033 171.196 11.9345C173.512 11.8723 175.803 12.4115 177.843 13.4984C179.658 14.4967 181.1 16.0466 181.958 17.9193C182.895 19.9474 183.254 22.1911 182.996 24.4069ZM174.431 23.2077C174.602 23.2094 174.768 23.1455 174.894 23.0293C175.02 22.913 175.095 22.7533 175.105 22.5833C175.162 22.0094 175.092 21.4302 174.899 20.8861C174.707 20.342 174.396 19.8462 173.99 19.4334C173.55 19.0042 173.027 18.6685 172.451 18.4471C171.876 18.2256 171.261 18.1231 170.644 18.1458C169.34 18.0933 168.06 18.5061 167.037 19.3092C166.014 20.1123 165.315 21.2524 165.068 22.5225C165.047 22.6052 165.046 22.6916 165.065 22.7748C165.083 22.8581 165.121 22.9359 165.175 23.0023C165.229 23.0686 165.298 23.1217 165.376 23.1573C165.454 23.193 165.54 23.2102 165.626 23.2077L174.431 23.2077Z" fill="#FFFFFF"/>
    <path d="M40.7574 4.12096L17.3372 20.8097C15.7257 21.7658 15.5305 23.9762 16.9803 24.9322L37.4786 41.621C39.0288 42.6433 41.2593 41.4773 41.4265 39.5597L44.3541 6.18219C44.5102 4.26464 42.486 3.09863 40.7574 4.12096Z" fill="#FF8800"/>
    <path d="M2.45929 25.9379L18.5188 14.4989C18.7768 14.3731 18.9976 14.1835 19.1601 13.9484C19.3225 13.7134 19.4211 13.4408 19.4464 13.157C19.4716 12.8732 19.4226 12.5877 19.3041 12.3281C19.1856 12.0686 19.0015 11.8436 18.7698 11.6751L4.71207 0.236055C4.44724 0.0863064 4.14858 0.00520336 3.84372 0.000242163C3.53885 -0.00471904 3.23762 0.0666216 2.96797 0.207673C2.69832 0.348724 2.46897 0.554934 2.3011 0.807181C2.13322 1.05943 2.03227 1.34957 2.00762 1.65075L0.00573543 24.5287C-0.0196848 24.8224 0.0397437 25.1171 0.177066 25.3785C0.314388 25.6399 0.52395 25.8572 0.781248 26.005C1.03855 26.1528 1.33296 26.2249 1.6301 26.213C1.92725 26.2012 2.21484 26.1057 2.45929 25.9379Z" fill="#FF8800"/>
  </g>

  <!-- one factual line -->
  <text x="600" y="228" text-anchor="middle" font-family="Poppins, 'Segoe UI', -apple-system, BlinkMacSystemFont, 'Helvetica Neue', Arial, sans-serif" font-size="19" letter-spacing="0.3" fill="#FFFFFF" fill-opacity="0.82">Fixed-fee conveyancing for Australian property &#183; QLD &#183; NSW &#183; VIC</text>
</svg>
